<svg width="458" height="180" viewBox="0 0 458 180" fill="none" xmlns="http://www.w3.org/2000/svg">
<path d="M186.36 72.728C186.36 68.984 189.336 65.72 193.08 65.72H199.704V119H231.576V131H186.36V72.728ZM236.828 140.024H240.38C247.388 140.024 249.884 136.568 247.868 129.848L230.588 80.216H245.084L255.164 115.448L263.996 84.728C264.764 81.752 266.78 80.216 270.044 80.216H278.972L258.908 139.64C255.836 147.992 252.764 150.872 242.204 150.872C238.94 150.872 237.212 150.776 236.828 150.488V140.024ZM328.187 131H321.659C317.435 130.712 315.323 128.696 315.323 124.664V98.552C315.035 93.272 312.155 90.68 306.491 90.68C300.827 90.68 297.947 93.272 297.851 98.552V131H284.891V101.144C284.891 86.648 292.187 79.448 306.683 79.448C321.179 79.448 328.283 86.648 328.187 101.144V131ZM378.755 115.448C376.451 125.816 368.963 132.44 357.155 132.152C341.795 132.152 333.923 123.32 333.539 105.848C333.539 88.472 341.315 79.736 356.963 79.448C369.251 79.448 376.547 84.92 378.755 95.96H364.835C363.299 92.504 360.611 90.68 356.579 90.68C349.859 90.68 346.499 95.768 346.499 105.848C346.499 115.928 350.051 121.016 357.155 120.92C360.131 120.92 362.723 119.672 364.835 117.272C366.083 116.024 367.523 115.448 369.155 115.448H378.755ZM430.317 115.448C427.533 126.2 420.621 132.152 408.141 132.152C392.781 131.672 385.101 122.744 385.101 105.464C385.101 88.184 392.877 79.544 408.333 79.448C424.461 79.448 432.045 89.336 431.085 109.208H398.253C398.733 116.984 402.093 120.92 408.333 120.92C411.309 120.92 414.093 119.672 416.589 117.272C417.741 116.024 419.181 115.448 420.909 115.448H430.317ZM408.141 89.912C402.669 89.912 399.405 93.368 398.445 100.088H417.549C416.781 93.368 413.613 89.912 408.141 89.912Z" fill="white"/>
<path fill-rule="evenodd" clip-rule="evenodd" d="M26.8868 0.313503C26.8868 0.485911 26.7621 1.05897 26.6098 1.58675C26.4576 2.11454 26.0768 3.81975 25.7638 5.37595C25.0209 9.07026 23.9762 13.4557 23.5845 14.5245C23.4134 14.9914 23.1604 15.8826 23.0223 16.5051C22.4775 18.9603 21.1851 23.0309 20.2674 25.1821C19.7362 26.427 19.0234 28.1247 18.683 28.9547C18.3426 29.7846 17.9272 30.7184 17.7596 31.0296C17.5923 31.3408 17.4547 31.6628 17.454 31.7453C17.4534 31.8277 16.9317 33.101 16.2947 34.5747C15.6577 36.0485 14.7751 38.1457 14.333 39.235C13.8909 40.3243 13.2985 41.72 13.0162 42.3363C12.734 42.9527 12.2998 43.997 12.0513 44.6568C11.8028 45.3168 11.4821 46.0432 11.3383 46.2713C11.1945 46.4993 11.0151 46.8981 10.9394 47.1575C10.8013 47.6309 8.24 53.7376 7.73509 54.797C7.58679 55.1082 7.2883 55.8229 7.07188 56.385C6.85547 56.9473 6.52396 57.7537 6.33509 58.177C6.14622 58.6005 5.62887 59.7815 5.18547 60.8018C4.74189 61.8221 3.39377 64.2837 2.18943 66.2721L0 69.8873V104.689V139.491L2.64151 141.018C4.09434 141.858 6.85377 143.462 8.77359 144.584C10.6934 145.705 12.6147 146.814 13.0432 147.048C13.4719 147.282 14.9577 148.145 16.3451 148.965C17.7326 149.786 19.5047 150.824 20.283 151.272C24.9189 153.94 27.5781 155.502 28.1783 155.91C28.554 156.165 28.9298 156.374 29.0136 156.374C29.0974 156.374 30.0753 156.915 31.1868 157.576C32.2981 158.237 33.8443 159.141 34.6226 159.586C35.4009 160.031 36.5472 160.712 37.1698 161.1C38.3321 161.824 40.0583 162.818 42.5472 164.199C43.3255 164.63 45.166 165.699 46.6376 166.573C49.1577 168.071 54.5411 171.218 57.2642 172.784C58.7474 173.637 64.3675 176.918 67.4047 178.703C68.6179 179.416 69.7874 180 70.0034 180C70.2196 180 71.3841 179.416 72.5915 178.703C75.2777 177.116 81.0677 173.736 82.7359 172.781C85.0991 171.427 90.7121 168.149 93.3625 166.573C94.834 165.699 96.6745 164.628 97.4528 164.194C99.6513 162.967 100.774 162.316 102.83 161.077C103.453 160.702 104.599 160.031 105.377 159.586C106.156 159.141 107.702 158.237 108.813 157.576C109.925 156.915 110.903 156.374 110.986 156.374C111.07 156.374 111.446 156.165 111.822 155.91C112.422 155.502 115.081 153.94 119.717 151.272C120.495 150.824 122.267 149.786 123.655 148.965C125.042 148.145 126.528 147.282 126.957 147.048C127.385 146.814 129.307 145.705 131.226 144.584C133.146 143.462 135.906 141.858 137.358 141.018L140 139.491V104.689V69.8873L137.805 66.2606C136.598 64.266 135.251 61.8044 134.81 60.7903C134.369 59.7764 133.82 58.5224 133.59 58.0037C133.36 57.4849 133.016 56.6361 132.827 56.1174C132.637 55.5986 132.419 55.0893 132.342 54.9856C132.265 54.8818 131.989 54.2452 131.728 53.5709C131.467 52.8965 130.858 51.4535 130.373 50.3642C129.888 49.2748 129.336 47.9591 129.146 47.4404C128.856 46.65 127.713 43.9357 127.08 42.536C126.986 42.3285 126.57 41.3524 126.154 40.3668C125.738 39.3812 124.757 37.0722 123.973 35.2357C123.189 33.3992 122.547 31.8275 122.547 31.7432C122.547 31.6589 122.382 31.281 122.179 30.9034C121.977 30.5258 121.539 29.5085 121.206 28.6427C120.874 27.7769 120.5 26.8986 120.376 26.6911C119.875 25.854 118.56 22.1985 117.865 19.7118C117.459 18.2594 116.85 16.0948 116.511 14.9018C116.172 13.7087 115.746 12.0534 115.565 11.2235C115.383 10.3935 115.06 9.03537 114.847 8.2054C114.634 7.37543 114.279 5.76264 114.059 4.62143C113.508 1.77067 113.058 0 112.883 0C112.802 0 112.736 0.735845 112.736 1.63504C112.736 3.32517 112.533 4.92795 112.072 6.88499C111.925 7.50747 111.668 8.73828 111.501 9.62012C111.334 10.502 110.896 12.1572 110.529 13.2984C109.815 15.5167 107.941 20.5622 107.635 21.0905C107.533 21.2659 107.08 22.3008 106.628 23.3901C105.313 26.5608 104.245 29.0643 103.733 30.1808C103.472 30.7514 103.151 31.5178 103.02 31.8841C102.774 32.5713 100.286 38.5137 99.8238 39.5179C99.33 40.5901 96.3813 47.6307 96.0634 48.4973C95.8881 48.9747 95.4374 49.866 95.0617 50.4779C94.6859 51.0896 94.1808 51.9517 93.9391 52.3936C93.6972 52.8354 93.3398 53.4296 93.1447 53.714C92.8079 54.205 91.2264 56.8332 90 58.94C88.6581 61.2453 87.9559 62.4176 87.2276 63.5682C86.8008 64.2426 86.2625 65.1339 86.0315 65.5489C85.3125 66.8406 84.283 68.536 83.7694 69.2743L83.2774 69.9817H70.0006H56.7238L56.2864 69.3696C55.5364 68.3198 54.4349 66.5209 54.1277 65.8439C53.9659 65.4872 53.6387 64.9354 53.4006 64.6178C53.1625 64.2999 52.7876 63.7003 52.5672 63.2853C52.347 62.8703 51.7006 61.7755 51.1306 60.8524C50.5608 59.9292 50.0943 59.1424 50.0943 59.1041C50.0943 59.0285 47.9832 55.5941 46.9477 53.9857C46.5938 53.4356 46.2308 52.7926 46.1409 52.5568C46.0513 52.3208 45.6421 51.6084 45.2315 50.9736C44.8211 50.3387 44.2481 49.2416 43.9581 48.5356C42.8291 45.7863 40.4272 40.0554 40.1789 39.5179C40.0351 39.2067 39.1894 37.2119 38.2994 35.0851C37.4096 32.9583 36.5649 30.9636 36.4225 30.6523C36.0185 29.7697 33.18 23.0176 32.8147 22.0697C32.6347 21.6028 32.424 21.136 32.3464 21.0322C32.1213 20.731 30.2017 15.5682 29.4711 13.2984C29.1036 12.1572 28.6664 10.502 28.4992 9.62012C28.3323 8.73828 28.0728 7.50747 27.923 6.88499C27.5336 5.26692 27.2642 3.02506 27.2642 1.40114C27.2642 0.592864 27.1843 0 27.0755 0C26.9717 0 26.8868 0.141096 26.8868 0.313503ZM24.0566 101.586C23.2783 102.254 22.5689 102.801 22.48 102.802C22.3911 102.803 22.1515 103.015 21.9474 103.275C21.7434 103.534 21.4764 103.749 21.3542 103.753C21.2321 103.756 20.0708 104.653 18.7736 105.746C17.4764 106.839 16.2242 107.81 15.9906 107.904C15.757 107.999 15.566 108.169 15.566 108.283C15.566 108.466 18.9651 112.869 19.8487 113.831C20.0357 114.034 20.2311 114.305 20.283 114.433C20.3349 114.561 21.037 115.466 21.8434 116.445C23.3811 118.312 23.6243 118.46 25.1745 118.46C25.5558 118.46 25.9555 118.547 26.0625 118.654C26.1694 118.761 28.5851 119.06 31.4304 119.319C34.2758 119.578 36.75 119.871 36.9289 119.972C37.1075 120.072 38.2575 120.252 39.4843 120.372L41.7147 120.59L42.9328 119.673C43.6028 119.169 45.2291 117.883 46.5468 116.816C47.8645 115.749 49.0321 114.876 49.1411 114.876C49.2504 114.876 49.3396 114.802 49.3396 114.712C49.3396 114.622 49.6581 114.328 50.0472 114.059C50.4364 113.789 50.9868 113.373 51.2704 113.133L51.786 112.697L50.9153 111.523C50.4364 110.877 49.9708 110.348 49.8808 110.348C49.7908 110.348 49.717 110.256 49.717 110.142C49.717 110.029 48.8891 108.917 47.8774 107.67C46.8657 106.424 45.644 104.854 45.1625 104.181C44.6811 103.509 44.2142 102.886 44.1247 102.797C44.0355 102.709 42.7621 102.511 41.2951 102.358C39.8281 102.204 38.4696 101.993 38.2762 101.888C38.0828 101.783 36.2264 101.56 34.1509 101.392C29.5191 101.018 27.6151 100.777 27.3734 100.536C27.2719 100.434 26.8025 100.356 26.3302 100.362C25.5534 100.372 25.337 100.488 24.0566 101.586ZM112.358 100.635C112.086 100.775 109.812 101.051 106.981 101.287C104.283 101.512 101.917 101.782 101.724 101.887C101.53 101.993 100.172 102.204 98.7049 102.357C95.7289 102.667 96.0732 102.482 94.5574 104.582C94.23 105.035 93.1343 106.426 92.1226 107.671C91.1109 108.917 90.283 110.029 90.283 110.142C90.283 110.256 90.2093 110.348 90.1193 110.348C90.0293 110.348 89.5636 110.877 89.0847 111.523L88.214 112.697L88.7296 113.133C89.0132 113.373 89.5638 113.789 89.9528 114.059C90.3421 114.328 90.6604 114.622 90.6604 114.712C90.6604 114.802 90.7496 114.876 90.8589 114.876C90.9679 114.876 92.1355 115.749 93.4532 116.816C94.7709 117.883 96.3972 119.169 97.0672 119.673L98.2853 120.59L100.516 120.372C101.742 120.252 102.892 120.072 103.071 119.972C103.25 119.871 105.724 119.578 108.57 119.319C111.415 119.06 113.831 118.761 113.938 118.654C114.045 118.547 114.444 118.46 114.825 118.46C116.376 118.46 116.619 118.312 118.157 116.445C118.963 115.466 119.665 114.561 119.717 114.433C119.769 114.305 119.964 114.034 120.151 113.831C121.035 112.869 124.434 108.466 124.434 108.283C124.434 108.169 124.243 107.998 124.009 107.904C123.776 107.81 122.566 106.879 121.321 105.835C120.075 104.791 118.988 103.937 118.904 103.936C118.821 103.935 117.783 103.129 116.599 102.143C114.588 100.469 114.393 100.352 113.638 100.371C113.194 100.382 112.618 100.501 112.358 100.635ZM57.5664 128.237C57.513 128.324 57.7266 128.6 58.0411 128.85C59.1923 129.767 66.6236 136.203 67.2757 136.847C67.6451 137.212 68.017 137.511 68.1019 137.511C68.1868 137.511 68.5851 137.808 68.9872 138.171C69.3891 138.534 69.8472 138.832 70.0047 138.832C70.1625 138.832 70.6598 138.492 71.1102 138.077C71.5606 137.662 71.9919 137.323 72.0689 137.323C72.1459 137.323 72.5183 137.031 72.8968 136.676C73.5938 136.02 75.873 134.016 79.2415 131.098C80.2591 130.216 81.2281 129.338 81.3949 129.147C81.5617 128.956 81.8943 128.723 82.134 128.629C82.3738 128.535 82.5174 128.373 82.453 128.269C82.3089 128.035 57.7104 128.004 57.5664 128.237Z" fill="white"/>
</svg>
